<?xml version="1.0" encoding="utf-8"?>
<!-- Generator: Adobe Illustrator 19.0.1, SVG Export Plug-In . SVG Version: 6.00 Build 0)  -->
<svg version="1.1" id="Layer_1" xmlns="http://www.w3.org/2000/svg" xmlns:xlink="http://www.w3.org/1999/xlink" x="0px" y="0px"
	 width="550px" height="80px" viewBox="0 0 550 80" enable-background="new 0 0 550 80" xml:space="preserve">
<g id="XMLID_465_">
	<g id="XMLID_667_">
		<g id="XMLID_668_">
			<path id="XMLID_678_" fill="#131313" d="M0,76.389V3.648h10.814c14.859,0,23.775,4.54,23.775,21.777
				c0,14.463-5.052,24.352-21.497,24.352h0.214v26.613H0z M14.182,36.47c5.746,0,7.43-3.515,7.43-10.945
				c0-7.628-2.774-9.459-6.34-9.459h-1.965V36.47H14.182z"/>
			<path id="XMLID_675_" fill="#131313" d="M63.168,3.648L75.65,76.389H61.682l-2.179-16.855h-9.609l-2.08,16.855H34.341
				l11.59-72.742H63.168z M55.045,18.728h-0.594l-3.467,31.048h7.232L55.045,18.728z"/>
			<path id="XMLID_672_" fill="#131313" d="M93.145,76.389H82.5V3.648h10.645V76.389z"/>
			<path id="XMLID_669_" fill="#131313" d="M103.79,76.389V3.648h13.028c19.713,0,23.973,10.516,23.973,35.578
				c0,25.657-4.557,37.163-24.27,37.163H103.79z M118.502,64.857c7.727,0,8.817-4.977,8.817-25.285
				c0-20.209-1.585-24.393-8.618-24.393h-0.717v49.677H118.502z"/>
		</g>
	</g>
	<g id="XMLID_661_">
		<path id="XMLID_665_" fill="#131313" d="M158.79,30.26h-5.323v-6.21h17.742v6.21H165v27.5h-6.21V30.26z"/>
		<path id="XMLID_662_" fill="#131313" d="M171.483,40.708c0-11.626,2.197-17.393,8.742-17.393c7.186,0,7.918,5.63,7.918,16.752
			c0,12.221-1.831,18.034-8.696,18.034C172.581,58.1,171.483,52.379,171.483,40.708z M182.056,40.479
			c0-9.2-0.275-11.672-2.06-11.672c-2.06,0-2.38,2.792-2.38,11.855c0,9.978,0.183,12.266,2.243,12.266
			C181.827,52.928,182.056,50.136,182.056,40.479z"/>
	</g>
	<rect id="XMLID_660_" x="153.468" y="68.406" fill="#131313" width="36.371" height="7.984"/>
	<rect id="XMLID_659_" x="153.468" y="4.535" fill="#131313" width="36.371" height="7.097"/>
	<g id="XMLID_468_">
		<path id="XMLID_656_" fill="#131313" d="M203.145,76.389V3.648h10.457c14.859,0,23.775,4.54,23.775,21.777
			c0,14.463-5.052,24.352-21.497,24.352h-1.204v26.613H203.145z M216.971,36.47c5.746,0,7.43-3.515,7.43-10.945
			c0-7.628-2.774-9.459-6.34-9.459h-3.383V36.47H216.971z"/>
		<path id="XMLID_651_" fill="#131313" d="M257.754,46.228h-0.991h-2.167v30.161h-11.532V3.648h10.43
			c14.562,0,23.478,4.01,23.478,20.058c0,8.717-2.576,15.148-8.222,18.615l11.293,34.069h-13.77L257.754,46.228z M256.467,34.696
			c5.151,0,7.529-2.727,7.529-9.661c0-7.132-3.368-8.968-6.439-8.968h-2.96v18.629H256.467z"/>
		<path id="XMLID_646_" fill="#131313" d="M282.184,40c0-25.162,4.755-37.644,18.921-37.644c15.553,0,17.138,12.185,17.138,36.257
			c0,26.45-3.962,39.03-18.822,39.03S282.184,65.261,282.184,40z M305.067,39.505c0-19.911-0.594-25.261-4.458-25.261
			c-4.458,0-5.151,6.043-5.151,25.657c0,21.596,0.396,26.549,4.854,26.549C304.572,66.45,305.067,60.407,305.067,39.505z"/>
		<path id="XMLID_642_" fill="#131313" d="M344.87,27.716c0.495-10.203-0.693-13.472-4.458-13.472c-3.269,0-4.557,2.576-4.557,5.647
			c0,5.746,2.576,8.618,7.232,12.185c6.835,5.35,15.949,11.194,15.949,24.567c0,14.364-7.331,21.001-17.93,21.001
			c-13.77,0-18.327-8.519-17.633-24.27l12.878-1.09c-0.099,12.284,2.08,14.166,5.448,14.166c2.774,0,4.359-2.08,4.359-6.835
			c0-6.736-4.161-10.302-9.015-13.77c-6.736-4.953-14.166-10.204-14.166-23.181c0-13.572,7.925-20.308,18.525-20.308
			c12.482,0,16.841,7.925,15.454,24.667L344.87,27.716z"/>
		<path id="XMLID_637_" fill="#131313" d="M392.097,46.228h-15.968V63.97h20.403v12.419h-33.71V3.648h31.935v12.419h-18.629v17.742
			h15.968V46.228z"/>
		<path id="XMLID_509_" fill="#131313" d="M422.565,50.798l12.383,0.693c0.297,19.218-4.755,26.152-17.534,26.152
			c-15.652,0-17.93-12.284-17.93-37.247c0-24.765,4.755-38.04,20.11-38.04c12.878,0,16.444,8.717,16.048,26.648l-12.185,1.09
			c0-12.383-0.495-16.147-4.755-16.147c-4.854,0-5.845,7.132-5.845,26.252c0,20.605-0.198,26.846,5.349,26.846
			C422.565,67.044,422.763,61.001,422.565,50.798z"/>
		<path id="XMLID_488_" fill="#131313" d="M464.839,3.648h10.645v51.014c0,12.383-2.043,22.982-17.794,22.982
			c-15.652,0-16.803-11.095-16.803-23.478V3.648h13.306v48.537c0,10.6,0.865,14.463,5.323,14.463c4.062,0,5.323-3.17,5.323-14.265
			V3.648z"/>
		<path id="XMLID_486_" fill="#131313" d="M489.677,16.067h-10.645V3.648h35.484v12.419h-9.758v60.323h-15.081V16.067z"/>
		<path id="XMLID_469_" fill="#131313" d="M545.565,46.228h-15.081V63.97H550v12.419h-31.048V3.648h28.387v12.419h-16.855v17.742
			h15.081V46.228z"/>
	</g>
</g>
</svg>
